<?xml version="1.0" encoding="utf-8"?>
<!-- Generator: Adobe Illustrator 15.0.2, SVG Export Plug-In . SVG Version: 6.00 Build 0)  -->
<!DOCTYPE svg PUBLIC "-//W3C//DTD SVG 1.1//EN" "http://www.w3.org/Graphics/SVG/1.1/DTD/svg11.dtd">
<svg version="1.1" id="Layer_1" xmlns="http://www.w3.org/2000/svg" xmlns:xlink="http://www.w3.org/1999/xlink" x="0px" y="0px"
	 width="32px" height="32px" viewBox="0 0 32 32" enable-background="new 0 0 32 32" xml:space="preserve">
<rect fill="none" width="32" height="32"/>
<g>
	<polygon fill="#D6002B" points="4.27,28.013 15.18,28.013 15.225,27.055 4.27,27.055 	"/>
	<g>
		<g>
			<g>
				<polygon id="SVGID_6_" fill="#64788D" points="17.676,5.842 13.404,13.874 9.953,12.04 14.225,4.007 				"/>
			</g>
			<g>
				<g>
					<g>
						<polygon id="SVGID_5_" fill="#64788D" points="17.676,5.842 13.404,13.874 9.953,12.04 14.225,4.007 						"/>
					</g>
					<g>
						<defs>
							
								<rect id="SVGID_1_" x="9.266" y="6.987" transform="matrix(0.4695 -0.8829 0.8829 0.4695 -0.5659 16.9399)" width="9.097" height="3.908"/>
						</defs>
						<clipPath id="SVGID_2_">
							<use xlink:href="#SVGID_1_"  overflow="visible"/>
						</clipPath>
						<polygon clip-path="url(#SVGID_2_)" fill="#64788D" points="11.664,0.756 21.787,6.138 15.957,17.028 5.835,11.647 						"/>
					</g>
				</g>
			</g>
		</g>
	</g>
	<g>
		<g>
			<g>
				<g>
					<g>
						<defs>
							<polygon id="SVGID_7_" points="9.936,12.031 9.808,16.452 13.395,13.825 							"/>
						</defs>
						<clipPath id="SVGID_8_">
							<use xlink:href="#SVGID_7_"  overflow="visible"/>
						</clipPath>
						
							<linearGradient id="SVGID_9_" gradientUnits="userSpaceOnUse" x1="151.0088" y1="522.0889" x2="151.6496" y2="522.0889" gradientTransform="matrix(5.3792 2.8602 2.8602 -5.3792 -2296.1958 2389.5667)">
							<stop  offset="0" style="stop-color:#DCB496"/>
							<stop  offset="0.0198" style="stop-color:#DCB496"/>
							<stop  offset="1" style="stop-color:#EBC3A5"/>
						</linearGradient>
						<polygon clip-path="url(#SVGID_8_)" fill="url(#SVGID_9_)" points="10.575,10.494 15.252,12.992 12.626,17.925 7.949,15.491 
													"/>
					</g>
				</g>
			</g>
		</g>
	</g>
	<g>
		<g>
			<g>
				<polygon id="SVGID_11_" fill="#D6002B" points="9.871,14.722 9.808,16.452 11.216,15.427 				"/>
			</g>
			<g>
				<g>
					<g>
						<defs>
							<polygon id="SVGID_10_" points="9.871,14.722 9.808,16.452 11.216,15.427 							"/>
						</defs>
						<clipPath id="SVGID_13_">
							<use xlink:href="#SVGID_10_"  overflow="visible"/>
						</clipPath>
						<polygon clip-path="url(#SVGID_13_)" fill="#D6002B" points="10.128,14.081 11.921,15.107 10.896,17.028 9.102,16.067 						
							"/>
					</g>
				</g>
			</g>
		</g>
	</g>
	<g>
		<g>
			<g>
				<polygon id="SVGID_4_" fill="#64788D" points="27.73,11.74 21.195,24.034 15.914,21.226 22.449,8.933 				"/>
			</g>
			<g>
				<g>
					<g>
						<polygon id="SVGID_12_" fill="#64788D" points="27.73,11.74 21.195,24.034 15.914,21.226 22.449,8.933 						"/>
					</g>
					<g>
						<defs>
							
								<rect id="SVGID_14_" x="14.861" y="13.492" transform="matrix(0.4694 -0.883 0.883 0.4694 -2.9746 28.0154)" width="13.923" height="5.982"/>
						</defs>
						<clipPath id="SVGID_15_">
							<use xlink:href="#SVGID_14_"  overflow="visible"/>
						</clipPath>
						<polygon clip-path="url(#SVGID_15_)" fill="#64788D" points="18.531,3.957 34.023,12.193 25.102,28.86 9.609,20.624 						"/>
					</g>
				</g>
			</g>
		</g>
	</g>
	<g>
		<g>
			<g>
				<g>
					<g>
						<defs>
							<polygon id="SVGID_16_" points="15.885,21.213 15.688,27.978 21.179,23.959 							"/>
						</defs>
						<clipPath id="SVGID_17_">
							<use xlink:href="#SVGID_16_"  overflow="visible"/>
						</clipPath>
						
							<linearGradient id="SVGID_18_" gradientUnits="userSpaceOnUse" x1="152.5791" y1="521.1152" x2="153.559" y2="521.1152" gradientTransform="matrix(5.3792 2.8602 2.8602 -5.3792 -2296.1958 2389.5667)">
							<stop  offset="0" style="stop-color:#DCB496"/>
							<stop  offset="0.0198" style="stop-color:#DCB496"/>
							<stop  offset="1" style="stop-color:#EBC3A5"/>
						</linearGradient>
						<polygon clip-path="url(#SVGID_17_)" fill="url(#SVGID_18_)" points="16.864,18.86 24.022,22.683 20.003,30.232 
							12.845,26.507 						"/>
					</g>
				</g>
			</g>
		</g>
	</g>
	<g>
		<g>
			<g>
				<polygon id="SVGID_3_" fill="#D6002B" points="15.786,25.331 15.688,27.978 17.846,26.41 				"/>
			</g>
			<g>
				<g>
					<g>
						<defs>
							<polygon id="SVGID_19_" points="15.786,25.331 15.688,27.978 17.846,26.41 							"/>
						</defs>
						<clipPath id="SVGID_20_">
							<use xlink:href="#SVGID_19_"  overflow="visible"/>
						</clipPath>
						<polygon clip-path="url(#SVGID_20_)" fill="#D6002B" points="16.179,24.351 18.924,25.92 17.355,28.86 14.609,27.39 						"/>
					</g>
				</g>
			</g>
		</g>
	</g>
	<polygon fill="#D6002B" points="4.27,16.452 9.504,16.452 9.533,15.835 4.27,15.835 	"/>
</g>
</svg>
