<?xml version="1.0" encoding="utf-8"?>
<!-- Generator: Adobe Illustrator 15.0.2, SVG Export Plug-In . SVG Version: 6.00 Build 0)  -->
<!DOCTYPE svg PUBLIC "-//W3C//DTD SVG 1.1//EN" "http://www.w3.org/Graphics/SVG/1.1/DTD/svg11.dtd">
<svg version="1.1" id="Ebene_1" xmlns="http://www.w3.org/2000/svg" xmlns:xlink="http://www.w3.org/1999/xlink" x="0px" y="0px"
	 width="400px" height="400px" viewBox="0 0 400 400" enable-background="new 0 0 400 400" xml:space="preserve">
<g>
	<g>
		
			<rect x="-0.409" y="421" fill="none" stroke="#1D1D1B" stroke-width="1.1109" stroke-miterlimit="10" width="399.938" height="399.94"/>
		
			<rect x="399.529" y="421" fill="none" stroke="#1D1D1B" stroke-width="1.1109" stroke-miterlimit="10" width="248.739" height="399.94"/>
		
			<rect x="399.529" y="421" fill="none" stroke="#1D1D1B" stroke-width="1.1109" stroke-miterlimit="10" width="248.739" height="248.737"/>
		
			<rect x="497.066" y="669.737" fill="none" stroke="#1D1D1B" stroke-width="1.1109" stroke-miterlimit="10" width="151.202" height="151.203"/>
		
			<rect x="399.529" y="723.402" fill="none" stroke="#1D1D1B" stroke-width="1.1109" stroke-miterlimit="10" width="97.537" height="97.538"/>
		
			<rect x="399.529" y="669.737" fill="none" stroke="#1D1D1B" stroke-width="1.1109" stroke-miterlimit="10" width="53.667" height="53.665"/>
		
			<rect x="453.196" y="669.737" fill="none" stroke="#1D1D1B" stroke-width="1.1109" stroke-miterlimit="10" width="43.87" height="43.873"/>
		<path fill="none" stroke="#F6AA00" stroke-width="1.1109" stroke-miterlimit="10" d="M-0.409,820.94
			c0-221.06,178.877-399.94,399.938-399.94"/>
		<path fill="none" stroke="#BD1622" stroke-width="1.1109" stroke-miterlimit="10" d="M648.268,669.737
			C648.268,532.253,537.014,421,399.529,421"/>
		<path fill="none" stroke="#E5332A" stroke-width="1.1109" stroke-miterlimit="10" d="M648.269,669.737
			c0,83.575-67.629,151.203-151.202,151.203"/>
		<path fill="none" stroke="#BD1622" stroke-width="1.1109" stroke-miterlimit="10" d="M399.529,723.402
			c0,53.913,43.626,97.538,97.537,97.538"/>
		<path fill="none" stroke="#BD1622" stroke-width="1.1109" stroke-miterlimit="10" d="M399.529,723.402
			c0-29.661,24.003-53.665,53.667-53.665"/>
		<path fill="none" stroke="#BD1622" stroke-width="1.1109" stroke-miterlimit="10" d="M497.066,713.61
			c0-24.248-19.624-43.873-43.87-43.873"/>
		<path fill="none" stroke="#009EE2" stroke-width="1.1109" stroke-miterlimit="10" d="M399.157,620.971
			c0,110.234-89.36,199.599-199.596,199.599c-110.238,0-199.6-89.364-199.6-199.599c0-110.236,89.362-199.599,199.6-199.599
			C309.797,421.372,399.157,510.734,399.157,620.971z"/>
		<circle fill="none" stroke="#009EE2" stroke-width="1.1109" stroke-miterlimit="10" cx="523.898" cy="545.367" r="124.369"/>
		<circle fill="none" stroke="#009EE2" stroke-width="1.1109" stroke-miterlimit="10" cx="572.667" cy="745.34" r="75.601"/>
		<circle fill="none" stroke="#009EE2" stroke-width="1.1109" stroke-miterlimit="10" cx="448.298" cy="772.172" r="48.769"/>
		<circle fill="none" stroke="#009EE2" stroke-width="1.1109" stroke-miterlimit="10" cx="426.363" cy="696.57" r="26.833"/>
		<circle fill="none" stroke="#009EE2" stroke-width="1.1109" stroke-miterlimit="10" cx="475.131" cy="691.673" r="21.935"/>
		
			<line fill="none" stroke="#99C33A" stroke-width="1.1109" stroke-miterlimit="10" x1="-0.409" y1="821.417" x2="400.009" y2="420.999"/>
		
			<line fill="none" stroke="#99C33A" stroke-width="1.1109" stroke-miterlimit="10" x1="400.009" y1="420.999" x2="647.267" y2="668.258"/>
		
			<line fill="none" stroke="#99C33A" stroke-width="1.1109" stroke-miterlimit="10" x1="648.269" y1="669.737" x2="499.354" y2="818.653"/>
		
			<line fill="none" stroke="#99C33A" stroke-width="1.1109" stroke-miterlimit="10" x1="497.066" y1="820.94" x2="400.728" y2="724.6"/>
		
			<line fill="none" stroke="#99C33A" stroke-width="1.1109" stroke-miterlimit="10" x1="399.529" y1="723.402" x2="453.869" y2="669.062"/>
		
			<line fill="none" stroke="#99C33A" stroke-width="1.1109" stroke-miterlimit="10" x1="453.869" y1="669.062" x2="497.741" y2="712.936"/>
	</g>
	
		<line fill="none" stroke="#99C33A" stroke-width="1.626" stroke-miterlimit="10" x1="399.529" y1="669.737" x2="646.055" y2="423.211"/>
</g>
<polygon fill="#D6002B" points="5,390 164.5,390 165.141,376 5,376 "/>
<g>
	<g>
		<g>
			<polygon id="SVGID_6_" fill="#D6002B" points="200.982,65.892 138.551,183.318 88.102,156.502 150.533,39.075 			"/>
		</g>
		<g>
			<defs>
				<polygon id="SVGID_3_" points="200.982,65.892 138.551,183.318 88.102,156.502 150.533,39.075 				"/>
			</defs>
			<clipPath id="SVGID_4_">
				<use xlink:href="#SVGID_3_"  overflow="visible"/>
			</clipPath>
			<polygon clip-path="url(#SVGID_4_)" fill="#D6002B" points="113.107,-8.457 261.091,70.218 175.858,229.433 27.884,150.758 			
				"/>
		</g>
	</g>
</g>
<g>
	<g>
		<g>
			<defs>
				<polygon id="SVGID_5_" points="87.827,156.374 85.952,221 138.396,182.604 				"/>
			</defs>
			<clipPath id="SVGID_7_">
				<use xlink:href="#SVGID_5_"  overflow="visible"/>
			</clipPath>
			
				<linearGradient id="SVGID_8_" gradientUnits="userSpaceOnUse" x1="-93.3545" y1="695.334" x2="-83.9957" y2="695.334" gradientTransform="matrix(5.3792 2.8602 2.8602 -5.3792 -1406.7344 4178.7871)">
				<stop  offset="0" style="stop-color:#DCB496"/>
				<stop  offset="0.0198" style="stop-color:#DCB496"/>
				<stop  offset="1" style="stop-color:#EBC3A5"/>
			</linearGradient>
			<polygon clip-path="url(#SVGID_7_)" fill="url(#SVGID_8_)" points="97.192,133.902 165.56,170.422 127.155,242.539 
				58.788,206.951 			"/>
		</g>
	</g>
</g>
<g>
	<g>
		<g>
			<polygon id="SVGID_11_" fill="#D6002B" points="86.885,195.711 85.952,221 106.558,206.019 			"/>
		</g>
		<g>
			<defs>
				<polygon id="SVGID_9_" points="86.885,195.711 85.952,221 106.558,206.019 				"/>
			</defs>
			<clipPath id="SVGID_10_">
				<use xlink:href="#SVGID_9_"  overflow="visible"/>
			</clipPath>
			<polygon clip-path="url(#SVGID_10_)" fill="#D6002B" points="90.635,186.346 116.856,201.336 101.875,229.433 75.645,215.385 			
				"/>
		</g>
	</g>
</g>
<g>
	<g>
		<g>
			<polygon id="SVGID_2_" fill="#D6002B" points="347.982,152.116 252.435,331.83 175.226,290.79 270.773,111.075 			"/>
		</g>
		<g>
			<defs>
				<polygon id="SVGID_12_" points="347.982,152.116 252.435,331.83 175.226,290.79 270.773,111.075 				"/>
			</defs>
			<clipPath id="SVGID_13_">
				<use xlink:href="#SVGID_12_"  overflow="visible"/>
			</clipPath>
			<polygon clip-path="url(#SVGID_13_)" fill="#D6002B" points="213.495,38.33 439.975,158.737 309.531,402.405 83.065,281.999 			
				"/>
		</g>
	</g>
</g>
<g>
	<g>
		<g>
			<defs>
				<polygon id="SVGID_14_" points="174.805,290.593 171.936,389.5 252.197,330.738 				"/>
			</defs>
			<clipPath id="SVGID_15_">
				<use xlink:href="#SVGID_14_"  overflow="visible"/>
			</clipPath>
			
				<linearGradient id="SVGID_16_" gradientUnits="userSpaceOnUse" x1="-70.4004" y1="681.1016" x2="-56.0773" y2="681.1016" gradientTransform="matrix(5.3792 2.8602 2.8602 -5.3792 -1406.7344 4178.7871)">
				<stop  offset="0" style="stop-color:#DCB496"/>
				<stop  offset="0.0198" style="stop-color:#DCB496"/>
				<stop  offset="1" style="stop-color:#EBC3A5"/>
			</linearGradient>
			<polygon clip-path="url(#SVGID_15_)" fill="url(#SVGID_16_)" points="189.138,256.202 293.77,312.094 234.994,422.464 
				130.362,367.999 			"/>
		</g>
	</g>
</g>
<g>
	<g>
		<g>
			<polygon id="SVGID_1_" fill="#D6002B" points="173.363,350.797 171.936,389.5 203.473,366.572 			"/>
		</g>
		<g>
			<defs>
				<polygon id="SVGID_17_" points="173.363,350.797 171.936,389.5 203.473,366.572 				"/>
			</defs>
			<clipPath id="SVGID_18_">
				<use xlink:href="#SVGID_17_"  overflow="visible"/>
			</clipPath>
			<polygon clip-path="url(#SVGID_18_)" fill="#D6002B" points="179.102,336.464 219.232,359.405 196.305,402.405 156.16,380.906 
							"/>
		</g>
	</g>
</g>
<polygon fill="#D6002B" points="5,221 81.536,221 81.948,212 5,212 "/>
</svg>
